<svg aria-hidden="true" style="position: absolute; width: 0; height: 0; overflow: hidden;" version="1.1" xmlns="http://www.w3.org/2000/svg" xmlns:xlink="http://www.w3.org/1999/xlink">
<defs>
<symbol id="icon-activeCheckbox" viewBox="0 0 32 32">
<path fill="#3751ff" style="fill: var(--color1, #3751ff)" d="M32 16c0 8.837-7.163 16-16 16s-16-7.163-16-16c0-8.837 7.163-16 16-16s16 7.163 16 16z"></path>
<path fill="none" stroke="#fff" style="stroke: var(--color2, #fff)" stroke-linejoin="miter" stroke-linecap="round" stroke-miterlimit="4" stroke-width="2.72" d="M8 17.6l4.687 4.687c0.062 0.062 0.164 0.062 0.226 0l11.087-11.087"></path>
</symbol>
<symbol id="icon-add" viewBox="0 0 32 32">
<path fill="#3751ff" style="fill: var(--color1, #3751ff)" d="M13.76 31.552v-13.952h-13.76v-3.968h13.76v-13.632h4.096v13.632h13.76v3.968h-13.76v13.952h-4.096z"></path>
</symbol>
<symbol id="icon-addPhoto" viewBox="0 0 32 32">
<path fill="#9fa2b4" style="fill: var(--color3, #9fa2b4)" opacity="0.5" d="M32 16c0 8.837-7.163 16-16 16s-16-7.163-16-16c0-8.837 7.163-16 16-16s16 7.163 16 16z"></path>
<path fill="#fff" style="fill: var(--color2, #fff)" d="M14.881 22.933v-5.896h-5.815v-1.677h5.815v-5.761h1.731v5.761h5.815v1.677h-5.815v5.896h-1.731z"></path>
</symbol>
<symbol id="icon-agents" viewBox="0 0 32 32">
<path d="M16 16c4.419 0 8-3.581 8-8s-3.581-8-8-8c-4.419 0-8 3.581-8 8s3.581 8 8 8zM21.987 18.038l-2.987 11.962-2-8.5 2-3.5h-6l2 3.5-2 8.5-2.988-11.962c-4.456 0.212-8.012 3.856-8.012 8.363v2.6c0 1.656 1.344 3 3 3h22c1.656 0 3-1.344 3-3v-2.6c0-4.506-3.556-8.15-8.013-8.363z"></path>
</symbol>
<symbol id="icon-arrowBottom" viewBox="0 0 55 32">
<path fill="#b5b8c4" style="fill: var(--color4, #b5b8c4)" d="M54.239 0.618c0.824 0.824 0.824 2.16 0 2.984l-25.319 25.319c-0.824 0.824-2.16 0.824-2.984 0l-25.319-25.319c-0.824-0.824-0.824-2.16 0-2.984s2.16-0.824 2.984 0l23.827 23.827 23.827-23.827c0.824-0.824 2.16-0.824 2.984 0z"></path>
</symbol>
<symbol id="icon-arrowLeft" viewBox="0 0 32 32">
<path fill="none" stroke="#9fa2b4" style="stroke: var(--color3, #9fa2b4)" stroke-linejoin="miter" stroke-linecap="round" stroke-miterlimit="4" stroke-width="2.6667" d="M20 24l-7.906-7.906c-0.052-0.052-0.052-0.137 0-0.189l7.906-7.906"></path>
</symbol>
<symbol id="icon-arrowRight" viewBox="0 0 32 32">
<path fill="none" stroke="#9fa2b4" style="stroke: var(--color3, #9fa2b4)" stroke-linejoin="miter" stroke-linecap="round" stroke-miterlimit="4" stroke-width="2.6667" d="M12 24l7.906-7.906c0.052-0.052 0.052-0.137 0-0.189l-7.906-7.906"></path>
</symbol>
<symbol id="icon-articles" viewBox="0 0 32 32">
<path d="M30 22.5v-21c0-0.831-0.669-1.5-1.5-1.5h-20.5c-3.313 0-6 2.688-6 6v20c0 3.312 2.688 6 6 6h20.5c0.831 0 1.5-0.669 1.5-1.5v-1c0-0.469-0.219-0.894-0.556-1.169-0.263-0.962-0.263-3.706 0-4.669 0.337-0.269 0.556-0.694 0.556-1.163zM10 8.375c0-0.206 0.169-0.375 0.375-0.375h13.25c0.206 0 0.375 0.169 0.375 0.375v1.25c0 0.206-0.169 0.375-0.375 0.375h-13.25c-0.206 0-0.375-0.169-0.375-0.375v-1.25zM10 12.375c0-0.206 0.169-0.375 0.375-0.375h13.25c0.206 0 0.375 0.169 0.375 0.375v1.25c0 0.206-0.169 0.375-0.375 0.375h-13.25c-0.206 0-0.375-0.169-0.375-0.375v-1.25zM25.837 28h-17.837c-1.106 0-2-0.894-2-2 0-1.1 0.9-2 2-2h17.837c-0.119 1.069-0.119 2.931 0 4z"></path>
</symbol>
<symbol id="icon-calendar" viewBox="0 0 32 32">
<path fill="#b5b8c4" style="fill: var(--color4, #b5b8c4)" d="M0 11.103c0-3.314 2.686-6 6-6h19.2c3.314 0 6 2.686 6 6v14.897c0 3.314-2.686 6-6 6h-19.2c-3.314 0-6-2.686-6-6v-14.897zM6 7.503c-1.988 0-3.6 1.612-3.6 3.6v14.897c0 1.988 1.612 3.6 3.6 3.6h19.2c1.988 0 3.6-1.612 3.6-3.6v-14.897c0-1.988-1.612-3.6-3.6-3.6h-19.2z"></path>
<path fill="#b5b8c4" style="fill: var(--color4, #b5b8c4)" d="M8.4 0c0.663 0 1.2 0.537 1.2 1.2v5.104c0 0.663-0.537 1.2-1.2 1.2s-1.2-0.537-1.2-1.2v-5.104c0-0.663 0.537-1.2 1.2-1.2z"></path>
<path fill="#b5b8c4" style="fill: var(--color4, #b5b8c4)" d="M22.8 0c0.663 0 1.2 0.537 1.2 1.2v5.104c0 0.663-0.537 1.2-1.2 1.2s-1.2-0.537-1.2-1.2v-5.104c0-0.663 0.537-1.2 1.2-1.2z"></path>
<path fill="#b5b8c4" style="fill: var(--color4, #b5b8c4)" d="M0 12.428c0-0.663 0.537-1.2 1.2-1.2h28.8c0.663 0 1.2 0.537 1.2 1.2s-0.537 1.2-1.2 1.2h-28.8c-0.663 0-1.2-0.537-1.2-1.2z"></path>
</symbol>
<symbol id="icon-contacts" viewBox="0 0 32 32">
<path  d="M4.8 14.4c1.765 0 3.2-1.435 3.2-3.2s-1.435-3.2-3.2-3.2c-1.765 0-3.2 1.435-3.2 3.2s1.435 3.2 3.2 3.2zM27.2 14.4c1.765 0 3.2-1.435 3.2-3.2s-1.435-3.2-3.2-3.2c-1.765 0-3.2 1.435-3.2 3.2s1.435 3.2 3.2 3.2zM28.8 16h-3.2c-0.88 0-1.675 0.355-2.255 0.93 2.015 1.105 3.445 3.1 3.755 5.47h3.3c0.885 0 1.6-0.715 1.6-1.6v-1.6c0-1.765-1.435-3.2-3.2-3.2zM16 16c3.095 0 5.6-2.505 5.6-5.6s-2.505-5.6-5.6-5.6c-3.095 0-5.6 2.505-5.6 5.6s2.505 5.6 5.6 5.6zM19.84 17.6h-0.415c-1.040 0.5-2.195 0.8-3.425 0.8s-2.38-0.3-3.425-0.8h-0.415c-3.18 0-5.76 2.58-5.76 5.76v1.44c0 1.325 1.075 2.4 2.4 2.4h14.4c1.325 0 2.4-1.075 2.4-2.4v-1.44c0-3.18-2.58-5.76-5.76-5.76zM8.655 16.93c-0.58-0.575-1.375-0.93-2.255-0.93h-3.2c-1.765 0-3.2 1.435-3.2 3.2v1.6c0 0.885 0.715 1.6 1.6 1.6h3.295c0.315-2.37 1.745-4.365 3.76-5.47z"></path>
</symbol>
<symbol id="icon-create" viewBox="0 0 32 32">
<path fill="#f0f1f7" style="fill: var(--color5, #f0f1f7)" d="M10.667 0h10.667c5.891 0 10.667 4.776 10.667 10.667v10.667c0 5.891-4.776 10.667-10.667 10.667h-10.667c-5.891 0-10.667-4.776-10.667-10.667v-10.667c0-5.891 4.776-10.667 10.667-10.667z"></path>
<path fill="none" stroke="#9fa2b4" style="stroke: var(--color3, #9fa2b4)" stroke-linejoin="miter" stroke-linecap="round" stroke-miterlimit="4" stroke-width="2.6667" d="M16 9.333v13.333"></path>
<path fill="none" stroke="#9fa2b4" style="stroke: var(--color3, #9fa2b4)" stroke-linejoin="miter" stroke-linecap="round" stroke-miterlimit="4" stroke-width="2.6667" d="M22.667 16h-13.333"></path>
</symbol>
<symbol id="icon-dropdown" viewBox="0 0 32 32">
<path fill="#9fa2b4" style="fill: var(--color3, #9fa2b4)" d="M7.956 12h16.081c1.113 0 1.669 1.344 0.881 2.131l-8.038 8.044c-0.488 0.488-1.281 0.488-1.769 0l-8.038-8.044c-0.787-0.787-0.231-2.131 0.881-2.131z"></path>
</symbol>
<symbol id="icon-filter" viewBox="0 0 32 32">
<path fill="#c5c7cd" style="fill: var(--color6, #c5c7cd)" d="M26.874 4h-21.747c-0.999 0-1.503 1.212-0.795 1.921l8.669 8.67v9.659c0 0.367 0.179 0.711 0.48 0.922l3.75 2.624c0.74 0.518 1.77-0.007 1.77-0.922v-12.283l8.669-8.67c0.707-0.707 0.206-1.921-0.796-1.921z"></path>
</symbol>
<symbol id="icon-hide" viewBox="0 0 32 32">
<path fill="#9fa2b4" style="fill: var(--color3, #9fa2b4)" d="M16 22c-3.16 0-5.719-2.446-5.954-5.546l-4.371-3.378c-0.575 0.721-1.103 1.483-1.53 2.316-0.095 0.189-0.145 0.397-0.145 0.608s0.050 0.42 0.145 0.608c2.26 4.409 6.733 7.392 11.855 7.392 1.121 0 2.203-0.167 3.245-0.436l-2.162-1.673c-0.357 0.069-0.72 0.105-1.083 0.109zM29.076 24.421l-4.606-3.56c1.399-1.179 2.55-2.625 3.385-4.253 0.095-0.188 0.145-0.397 0.145-0.608s-0.050-0.42-0.145-0.608c-2.26-4.409-6.733-7.392-11.855-7.392-2.145 0.003-4.256 0.543-6.138 1.571l-5.301-4.097c-0.069-0.054-0.148-0.093-0.233-0.117s-0.173-0.030-0.26-0.019c-0.087 0.011-0.171 0.039-0.247 0.082s-0.143 0.101-0.197 0.17l-0.818 1.053c-0.108 0.14-0.157 0.317-0.135 0.492s0.113 0.335 0.252 0.443l24.515 18.947c0.069 0.054 0.148 0.093 0.233 0.117s0.173 0.030 0.26 0.019 0.171-0.039 0.247-0.082c0.076-0.043 0.143-0.101 0.197-0.17l0.818-1.053c0.108-0.14 0.157-0.317 0.135-0.492s-0.113-0.335-0.252-0.443zM21.421 18.504l-1.638-1.266c0.138-0.399 0.211-0.817 0.217-1.238 0.008-0.617-0.129-1.228-0.399-1.783s-0.668-1.039-1.159-1.412c-0.492-0.374-1.064-0.627-1.671-0.739s-1.232-0.081-1.825 0.092c0.251 0.34 0.387 0.752 0.388 1.175-0.006 0.141-0.028 0.28-0.064 0.417l-3.067-2.37c1.065-0.89 2.409-1.379 3.798-1.38 0.788-0 1.568 0.154 2.297 0.456s1.39 0.743 1.947 1.301c0.557 0.557 0.999 1.219 1.3 1.947s0.456 1.509 0.456 2.297c0 0.901-0.22 1.741-0.579 2.505v-0z"></path>
</symbol>
<symbol id="icon-horizontal" viewBox="0 0 288 32">
<path fill="none" stroke="#3751ff" style="stroke: var(--color1, #3751ff)" stroke-linejoin="miter" stroke-linecap="round" stroke-miterlimit="4" stroke-width="32" d="M16 16h256"></path>
</symbol>
<symbol id="icon-ideas" viewBox="0 0 32 32">
<path d="M11.004 28.397c0.001 0.393 0.117 0.778 0.335 1.106l1.068 1.606c0.182 0.274 0.43 0.5 0.72 0.655s0.615 0.237 0.945 0.237h3.857c0.33 0 0.654-0.081 0.945-0.237s0.538-0.381 0.72-0.655l1.068-1.606c0.218-0.327 0.335-0.712 0.335-1.106l0.003-2.397h-9.999l0.003 2.397zM5 11c0 2.773 1.028 5.303 2.723 7.236 1.033 1.178 2.648 3.639 3.263 5.716 0.002 0.016 0.004 0.033 0.007 0.049h10.015c0.003-0.016 0.004-0.032 0.007-0.049 0.616-2.076 2.231-4.537 3.263-5.716 1.694-1.933 2.722-4.463 2.722-7.236 0-6.087-4.943-11.019-11.034-11-6.376 0.019-10.966 5.186-10.966 11zM16 6c-2.757 0-5 2.243-5 5 0 0.553-0.447 1-1 1s-1-0.447-1-1c0-3.86 3.14-7 7-7 0.552 0 1 0.447 1 1s-0.448 1-1 1z"></path>
</symbol>
<symbol id="icon-inactiveCheckbox" viewBox="0 0 32 32">
<path fill="none" stroke="#c5c7cd" style="stroke: var(--color6, #c5c7cd)" stroke-linejoin="miter" stroke-linecap="butt" stroke-miterlimit="4" stroke-width="3.2" d="M30.4 16c0 7.953-6.447 14.4-14.4 14.4s-14.4-6.447-14.4-14.4c0-7.953 6.447-14.4 14.4-14.4s14.4 6.447 14.4 14.4z"></path>
</symbol>
<symbol id="icon-logo" viewBox="0 0 32 32">
<path fill="#3751ff" style="fill: var(--color1, #3751ff)" d="M32 16c0 8.837-7.163 16-16 16s-16-7.163-16-16c0-8.837 7.163-16 16-16s16 7.163 16 16z"></path>
<path fill="#fff" style="fill: var(--color7, #fff)" d="M11 9.667c0-0.368 0.298-0.667 0.667-0.667h4.324c2.222 0 3.943 0.61 5.162 1.829 1.232 1.219 1.848 2.936 1.848 5.152 0 2.228-0.616 3.959-1.848 5.191-1.219 1.219-2.94 1.829-5.162 1.829h-4.324c-0.368 0-0.667-0.298-0.667-0.667v-12.667z"></path>
</symbol>
<symbol id="icon-more" viewBox="0 0 32 32">
<path fill="#c5c7cd" style="fill: var(--color6, #c5c7cd)" d="M16 10.667c1.467 0 2.667-1.2 2.667-2.667s-1.2-2.667-2.667-2.667c-1.467 0-2.667 1.2-2.667 2.667s1.2 2.667 2.667 2.667zM16 13.333c-1.467 0-2.667 1.2-2.667 2.667s1.2 2.667 2.667 2.667c1.467 0 2.667-1.2 2.667-2.667s-1.2-2.667-2.667-2.667zM16 21.333c-1.467 0-2.667 1.2-2.667 2.667s1.2 2.667 2.667 2.667c1.467 0 2.667-1.2 2.667-2.667s-1.2-2.667-2.667-2.667z"></path>
</symbol>
<symbol id="icon-new" viewBox="0 0 30 32">
<path fill="#c5c7cd" style="fill: var(--color6, #c5c7cd)" d="M13.474 32c1.859 0 3.367-1.508 3.367-3.368h-6.734c0 1.861 1.508 3.368 3.367 3.368zM24.81 24.121c-1.017-1.093-2.919-2.736-2.919-8.121 0-4.089-2.867-7.363-6.734-8.166v-1.097c0-0.93-0.754-1.684-1.683-1.684s-1.683 0.754-1.683 1.684v1.097c-3.866 0.803-6.734 4.077-6.734 8.166 0 5.384-1.903 7.028-2.919 8.121-0.316 0.339-0.456 0.745-0.453 1.143 0.006 0.863 0.683 1.684 1.689 1.684h20.2c1.006 0 1.684-0.821 1.689-1.684 0.003-0.397-0.137-0.804-0.453-1.143z"></path>
<path fill="#3751ff" style="fill: var(--color1, #3751ff); stroke: var(--color8, #f7f8fc)" stroke="#f7f8fc" stroke-linejoin="miter" stroke-linecap="butt" stroke-miterlimit="4" stroke-width="2.5263" d="M28.211 8.421c0 3.488-2.828 6.316-6.316 6.316s-6.316-2.828-6.316-6.316c0-3.488 2.828-6.316 6.316-6.316s6.316 2.828 6.316 6.316z"></path>
</symbol>
<symbol id="icon-overview" viewBox="0 0 32 32">
<path d="M31.046 17.882h-13.958l9.296 9.296c0.355 0.355 0.94 0.384 1.305 0.040 2.276-2.145 3.842-5.036 4.302-8.286 0.079-0.556-0.383-1.050-0.945-1.050zM30.115 14.071c-0.485-7.027-6.1-12.642-13.127-13.127-0.536-0.037-0.988 0.415-0.988 0.953v13.162h13.163c0.538 0 0.989-0.452 0.952-0.988zM13.176 17.882v-13.958c0-0.562-0.494-1.024-1.049-0.945-7.010 0.991-12.368 7.115-12.119 14.454 0.256 7.538 6.746 13.719 14.288 13.624 2.965-0.037 5.704-0.992 7.957-2.59 0.465-0.329 0.495-1.014 0.092-1.416l-9.168-9.169z"></path>
</symbol>
<symbol id="icon-profileCircle" viewBox="0 0 32 32">
<path fill="none" stroke="#dfe0eb" style="stroke: var(--color10, #dfe0eb)" stroke-linejoin="miter" stroke-linecap="butt" stroke-miterlimit="4" stroke-width="1" d="M31.167 16c0 8.376-6.79 15.167-15.167 15.167s-15.167-6.79-15.167-15.167c0-8.376 6.79-15.167 15.167-15.167s15.167 6.79 15.167 15.167z"></path>
</symbol>
<symbol id="icon-search" viewBox="0 0 32 32">
<path fill="none" stroke="#c5c7cd" style="stroke: var(--color6, #c5c7cd)" stroke-linejoin="miter" stroke-linecap="butt" stroke-miterlimit="4" stroke-width="3" d="M24.5 13c0 6.351-5.149 11.5-11.5 11.5s-11.5-5.149-11.5-11.5c0-6.351 5.149-11.5 11.5-11.5s11.5 5.149 11.5 11.5z"></path>
<path fill="none" stroke="#c5c7cd" style="stroke: var(--color6, #c5c7cd)" stroke-linejoin="miter" stroke-linecap="round" stroke-miterlimit="4" stroke-width="3" d="M22 22l8 8"></path>
</symbol>
<symbol id="icon-settings" viewBox="0 0 32 32">
<path d="M30.463 19.731l-2.663-1.538c0.269-1.45 0.269-2.938 0-4.387l2.663-1.537c0.306-0.175 0.444-0.537 0.344-0.875-0.694-2.225-1.875-4.237-3.419-5.912-0.238-0.256-0.625-0.319-0.925-0.144l-2.663 1.538c-1.119-0.963-2.406-1.706-3.8-2.194v-3.069c0-0.35-0.244-0.656-0.587-0.731-2.294-0.512-4.644-0.487-6.825 0-0.344 0.075-0.588 0.381-0.588 0.731v3.075c-1.387 0.494-2.675 1.237-3.8 2.194l-2.656-1.537c-0.306-0.175-0.688-0.119-0.925 0.144-1.544 1.669-2.725 3.681-3.419 5.912-0.106 0.338 0.038 0.7 0.344 0.875l2.662 1.537c-0.269 1.45-0.269 2.937 0 4.388l-2.663 1.538c-0.306 0.175-0.444 0.537-0.344 0.875 0.694 2.225 1.875 4.237 3.419 5.912 0.237 0.256 0.625 0.319 0.925 0.144l2.663-1.537c1.119 0.962 2.406 1.706 3.8 2.194v3.075c0 0.35 0.244 0.656 0.588 0.731 2.294 0.512 4.644 0.487 6.825 0 0.344-0.075 0.587-0.381 0.587-0.731v-3.075c1.388-0.494 2.675-1.237 3.8-2.194l2.663 1.537c0.306 0.175 0.687 0.119 0.925-0.144 1.544-1.669 2.725-3.681 3.419-5.912 0.094-0.344-0.044-0.706-0.35-0.881zM16 21c-2.756 0-5-2.244-5-5s2.244-5 5-5c2.756 0 5 2.244 5 5s-2.244 5-5 5z"></path>
</symbol>
<symbol id="icon-sheet" viewBox="0 0 51 32">
<path fill="#fff" style="fill: var(--color2, #fff)" d="M6.261 2.783h38.957c1.537 0 2.783 1.246 2.783 2.783v15.304c0 1.537-1.246 2.783-2.783 2.783h-14.609l-4.689 4.019c-0.104 0.089-0.258 0.089-0.362 0l-4.689-4.019h-14.609c-1.537 0-2.783-1.246-2.783-2.783v-15.304c0-1.537 1.246-2.783 2.783-2.783z"></path>
<path fill="#dfe0eb" style="fill: var(--color10, #dfe0eb)" d="M45.217 23.652v0zM30.609 23.652v-0.348h-0.129l-0.098 0.084 0.226 0.264zM25.92 27.671v0zM25.558 27.671v0zM20.87 23.652l0.226-0.264-0.098-0.084h-0.129v0.348zM6.261 23.652v0zM45.217 2.435h-38.957v0.696h38.957v-0.696zM48.348 5.565c0-1.729-1.402-3.13-3.13-3.13v0.696c1.345 0 2.435 1.090 2.435 2.435h0.696zM48.348 20.87v-15.304h-0.696v15.304h0.696zM45.217 24c1.729 0 3.13-1.402 3.13-3.13h-0.696c0 1.345-1.090 2.435-2.435 2.435v0.696zM30.609 24h14.609v-0.696h-14.609v0.696zM30.382 23.388l-4.689 4.019 0.453 0.528 4.689-4.019-0.453-0.528zM25.694 27.407c0.026-0.022 0.064-0.022 0.091 0l-0.453 0.528c0.234 0.201 0.58 0.201 0.815 0l-0.453-0.528zM25.784 27.407l-4.689-4.019-0.453 0.528 4.689 4.019 0.453-0.528zM6.261 24h14.609v-0.696h-14.609v0.696zM3.13 20.87c0 1.729 1.402 3.13 3.13 3.13v-0.696c-1.345 0-2.435-1.090-2.435-2.435h-0.696zM3.13 5.565v15.304h0.696v-15.304h-0.696zM6.261 2.435c-1.729 0-3.13 1.402-3.13 3.13h0.696c0-1.345 1.090-2.435 2.435-2.435v-0.696z"></path>
</symbol>
<symbol id="icon-sort" viewBox="0 0 32 32">
<path fill="#c5c7cd" style="fill: var(--color6, #c5c7cd)" d="M2.257 8.537l4.374-4.286c0.342-0.335 0.896-0.335 1.237 0l4.374 4.286c0.551 0.539 0.159 1.463-0.619 1.463h-2.624v17.143c0 0.473-0.392 0.857-0.875 0.857h-1.75c-0.483 0-0.875-0.384-0.875-0.857v-17.143h-2.624c-0.779 0-1.168-0.925-0.619-1.463zM15.125 7.429h14c0.483 0 0.875-0.384 0.875-0.857v-1.714c0-0.473-0.392-0.857-0.875-0.857h-14c-0.483 0-0.875 0.384-0.875 0.857v1.714c0 0.473 0.392 0.857 0.875 0.857zM14.25 13.429v-1.714c0-0.473 0.392-0.857 0.875-0.857h10.5c0.483 0 0.875 0.384 0.875 0.857v1.714c0 0.473-0.392 0.857-0.875 0.857h-10.5c-0.483 0-0.875-0.384-0.875-0.857zM14.25 27.143v-1.714c0-0.473 0.392-0.857 0.875-0.857h3.5c0.483 0 0.875 0.384 0.875 0.857v1.714c0 0.473-0.392 0.857-0.875 0.857h-3.5c-0.483 0-0.875-0.384-0.875-0.857zM14.25 20.286v-1.714c0-0.473 0.392-0.857 0.875-0.857h7c0.483 0 0.875 0.384 0.875 0.857v1.714c0 0.473-0.392 0.857-0.875 0.857h-7c-0.483 0-0.875-0.384-0.875-0.857z"></path>
</symbol>
<symbol id="icon-subscription" viewBox="0 0 32 32">
<path d="M10.070 22.664c-0.543-0.543-0.26-0.39-1.57-0.741-0.594-0.159-1.117-0.466-1.589-0.833l-2.836 6.953c-0.274 0.673 0.238 1.404 0.964 1.377l3.293-0.126 2.265 2.392c0.5 0.528 1.377 0.363 1.652-0.31l3.253-7.976c-0.678 0.378-1.429 0.599-2.207 0.599-1.219 0-2.364-0.474-3.226-1.336zM27.925 28.044l-2.836-6.953c-0.473 0.368-0.995 0.673-1.589 0.833-1.317 0.352-1.028 0.199-1.57 0.741-0.862 0.861-2.008 1.336-3.226 1.336-0.777 0-1.529-0.222-2.207-0.599l3.253 7.976c0.274 0.673 1.153 0.838 1.652 0.31l2.266-2.392 3.293 0.126c0.726 0.028 1.239-0.704 0.964-1.377zM20.438 21.25c0.955-0.972 1.064-0.888 2.424-1.259 0.868-0.237 1.547-0.927 1.779-1.811 0.468-1.775 0.346-1.561 1.622-2.859 0.636-0.647 0.884-1.59 0.651-2.474-0.467-1.774-0.468-1.526 0-3.302 0.232-0.884-0.016-1.827-0.651-2.474-1.276-1.299-1.154-1.085-1.622-2.859-0.232-0.884-0.911-1.574-1.779-1.811-1.742-0.476-1.532-0.351-2.809-1.651-0.636-0.647-1.563-0.9-2.431-0.663-1.742 0.475-1.499 0.476-3.244 0-0.868-0.237-1.795 0.016-2.431 0.663-1.276 1.299-1.066 1.175-2.809 1.651-0.868 0.237-1.547 0.928-1.779 1.811-0.467 1.774-0.346 1.561-1.622 2.859-0.636 0.647-0.884 1.59-0.651 2.474 0.467 1.773 0.468 1.525 0 3.301-0.232 0.884 0.016 1.827 0.651 2.474 1.276 1.299 1.154 1.084 1.622 2.859 0.232 0.884 0.911 1.574 1.779 1.811 1.399 0.381 1.503 0.321 2.424 1.259 0.827 0.842 2.115 0.992 3.109 0.364 0.397-0.252 0.858-0.386 1.329-0.386s0.932 0.134 1.329 0.386c0.993 0.629 2.281 0.478 3.108-0.364zM10.104 10.997c0-3.314 2.64-6.001 5.896-6.001s5.896 2.687 5.896 6.001c0 3.314-2.64 6.001-5.896 6.001s-5.896-2.687-5.896-6.001z"></path>
</symbol>
<symbol id="icon-tickets" viewBox="0 0 32 32">
<path d="M7.111 10.667h17.778v10.667h-17.778v-10.667zM29.333 16c0 1.473 1.194 2.667 2.667 2.667v5.333c0 1.473-1.194 2.667-2.667 2.667h-26.667c-1.473 0-2.667-1.194-2.667-2.667v-5.333c1.473 0 2.667-1.194 2.667-2.667s-1.194-2.667-2.667-2.667v-5.333c0-1.473 1.194-2.667 2.667-2.667h26.667c1.473 0 2.667 1.194 2.667 2.667v5.333c-1.473 0-2.667 1.194-2.667 2.667zM26.667 10.222c0-0.736-0.597-1.333-1.333-1.333h-18.667c-0.736 0-1.333 0.597-1.333 1.333v11.556c0 0.736 0.597 1.333 1.333 1.333h18.667c0.736 0 1.333-0.597 1.333-1.333v-11.556z"></path>
</symbol>
<symbol id="icon-vertical" viewBox="0 0 2 32">
<path fill="none" stroke="#dfe0eb" style="stroke: var(--color10, #dfe0eb)" stroke-linejoin="miter" stroke-linecap="butt" stroke-miterlimit="4" stroke-width="1" d="M1 0v32"></path>
</symbol>
</defs>
</svg>
