<svg aria-hidden="true" style="position:absolute;width:0;height:0;overflow:hidden" xmlns="http://www.w3.org/2000/svg"><defs><symbol id="icon-horizontal" viewBox="0 0 288 32"><path stroke-linecap="round" stroke-width="32" d="M16 16h256"/></symbol><symbol id="icon-activeCheckbox" viewBox="0 0 32 32"><path d="M32 16c0 8.837-7.163 16-16 16S0 24.837 0 16 7.163 0 16 0s16 7.163 16 16z"/><path stroke-linecap="round" stroke-width="2.72" d="m8 17.6 4.687 4.687a.16.16 0 0 0 .226 0L24 11.2"/></symbol><symbol id="icon-addPhoto" viewBox="0 0 32 32"><path d="M32 16c0 8.837-7.163 16-16 16S0 24.837 0 16 7.163 0 16 0s16 7.163 16 16z"/><path d="M14.881 22.933v-5.896H9.066V15.36h5.815V9.599h1.731v5.761h5.815v1.677h-5.815v5.896h-1.731z"/></symbol><symbol id="icon-agents" viewBox="0 0 32 32"><path d="M16 16c4.419 0 8-3.581 8-8s-3.581-8-8-8c-4.419 0-8 3.581-8 8s3.581 8 8 8zm5.987 2.038L19 30l-2-8.5 2-3.5h-6l2 3.5-2 8.5-2.988-11.962C5.556 18.25 2 21.894 2 26.401v2.6c0 1.656 1.344 3 3 3h22c1.656 0 3-1.344 3-3v-2.6c0-4.506-3.556-8.15-8.013-8.363z"/></symbol><symbol id="icon-arrowBottom" viewBox="0 0 55 32"><path d="M54.239.618a2.11 2.11 0 0 1 0 2.984L28.92 28.921a2.11 2.11 0 0 1-2.984 0L.617 3.602A2.11 2.11 0 0 1 3.601.618l23.827 23.827L51.255.618a2.11 2.11 0 0 1 2.984 0z"/></symbol><symbol id="icon-arrowLeft" viewBox="0 0 32 32"><path stroke-linecap="round" stroke-width="2.667" d="m20 24-7.906-7.906a.134.134 0 0 1 0-.189L20 7.999"/></symbol><symbol id="icon-arrowRight" viewBox="0 0 32 32"><path stroke-linecap="round" stroke-width="2.667" d="m12 24 7.906-7.906a.134.134 0 0 0 0-.189L12 7.999"/></symbol><symbol id="icon-articles" viewBox="0 0 32 32"><path d="M30 22.5v-21c0-.831-.669-1.5-1.5-1.5H8C4.687 0 2 2.688 2 6v20c0 3.312 2.688 6 6 6h20.5c.831 0 1.5-.669 1.5-1.5v-1c0-.469-.219-.894-.556-1.169-.263-.962-.263-3.706 0-4.669.337-.269.556-.694.556-1.163zM10 8.375c0-.206.169-.375.375-.375h13.25c.206 0 .375.169.375.375v1.25a.376.376 0 0 1-.375.375h-13.25A.376.376 0 0 1 10 9.625v-1.25zm0 4c0-.206.169-.375.375-.375h13.25c.206 0 .375.169.375.375v1.25a.376.376 0 0 1-.375.375h-13.25a.376.376 0 0 1-.375-.375v-1.25zM25.837 28H8c-1.106 0-2-.894-2-2 0-1.1.9-2 2-2h17.837c-.119 1.069-.119 2.931 0 4z"/></symbol><symbol id="icon-calendar" viewBox="0 0 32 32"><path d="M0 11.103a6 6 0 0 1 6-6h19.2a6 6 0 0 1 6 6V26a6 6 0 0 1-6 6H6a6 6 0 0 1-6-6V11.103zm6-3.6a3.6 3.6 0 0 0-3.6 3.6V26A3.6 3.6 0 0 0 6 29.6h19.2a3.6 3.6 0 0 0 3.6-3.6V11.103a3.6 3.6 0 0 0-3.6-3.6H6z"/><path d="M8.4 0a1.2 1.2 0 0 1 1.2 1.2v5.104a1.2 1.2 0 1 1-2.4 0V1.2A1.2 1.2 0 0 1 8.4 0zM22.8 0A1.2 1.2 0 0 1 24 1.2v5.104a1.2 1.2 0 1 1-2.4 0V1.2A1.2 1.2 0 0 1 22.8 0zM0 12.428a1.2 1.2 0 0 1 1.2-1.2H30a1.2 1.2 0 1 1 0 2.4H1.2a1.2 1.2 0 0 1-1.2-1.2z"/></symbol><symbol id="icon-contacts" viewBox="0 0 32 32"><path d="M4.8 14.4c1.765 0 3.2-1.435 3.2-3.2S6.565 8 4.8 8c-1.765 0-3.2 1.435-3.2 3.2s1.435 3.2 3.2 3.2zm22.4 0c1.765 0 3.2-1.435 3.2-3.2S28.965 8 27.2 8C25.435 8 24 9.435 24 11.2s1.435 3.2 3.2 3.2zm1.6 1.6h-3.2a3.19 3.19 0 0 0-2.255.93A7.314 7.314 0 0 1 27.1 22.4h3.3c.885 0 1.6-.715 1.6-1.6v-1.6c0-1.765-1.435-3.2-3.2-3.2zM16 16c3.095 0 5.6-2.505 5.6-5.6S19.095 4.8 16 4.8c-3.095 0-5.6 2.505-5.6 5.6S12.905 16 16 16zm3.84 1.6h-.415c-1.04.5-2.195.8-3.425.8s-2.38-.3-3.425-.8h-.415c-3.18 0-5.76 2.58-5.76 5.76v1.44a2.4 2.4 0 0 0 2.4 2.4h14.4a2.4 2.4 0 0 0 2.4-2.4v-1.44c0-3.18-2.58-5.76-5.76-5.76zm-11.185-.67A3.19 3.19 0 0 0 6.4 16H3.2A3.203 3.203 0 0 0 0 19.2v1.6c0 .885.715 1.6 1.6 1.6h3.295a7.332 7.332 0 0 1 3.76-5.47z"/></symbol><symbol id="icon-create" viewBox="0 0 32 32"><path d="M10.667 0h10.667c5.891 0 10.667 4.776 10.667 10.667v10.667c0 5.891-4.776 10.667-10.667 10.667H10.667C4.776 32.001 0 27.225 0 21.334V10.667C0 4.776 4.776 0 10.667 0z"/><path stroke-linecap="round" stroke-width="2.667" d="M16 9.333v13.333M22.667 16H9.334"/></symbol><symbol id="icon-dropdown" viewBox="0 0 32 32"><path d="M7.956 12h16.081c1.113 0 1.669 1.344.881 2.131l-8.038 8.044a1.252 1.252 0 0 1-1.769 0l-8.038-8.044C6.286 13.344 6.842 12 7.954 12z"/></symbol><symbol id="icon-filter" viewBox="0 0 32 32"><path d="M26.874 4H5.127c-.999 0-1.503 1.212-.795 1.921l8.669 8.67v9.659c0 .367.179.711.48.922l3.75 2.624c.74.518 1.77-.007 1.77-.922V14.591l8.669-8.67c.707-.707.206-1.921-.796-1.921z"/></symbol><symbol id="icon-hide" viewBox="0 0 32 32"><path d="M16 22c-3.16 0-5.719-2.446-5.954-5.546l-4.371-3.378c-.575.721-1.103 1.483-1.53 2.316a1.354 1.354 0 0 0 0 1.216C6.405 21.017 10.878 24 16 24c1.121 0 2.203-.167 3.245-.436l-2.162-1.673c-.357.069-.72.105-1.083.109zm13.076 2.421-4.606-3.56a13.797 13.797 0 0 0 3.385-4.253 1.35 1.35 0 0 0 0-1.216C25.595 10.983 21.122 8 16 8a12.843 12.843 0 0 0-6.138 1.571L4.561 5.474a.673.673 0 0 0-.74-.054.67.67 0 0 0-.197.17l-.818 1.053a.67.67 0 0 0 .117.935l24.515 18.947a.673.673 0 0 0 .74.054.67.67 0 0 0 .197-.17l.818-1.053a.67.67 0 0 0-.117-.935zm-7.655-5.917-1.638-1.266a3.96 3.96 0 0 0-.182-3.021 3.939 3.939 0 0 0-2.83-2.151 3.954 3.954 0 0 0-1.825.092c.251.34.387.752.388 1.175-.006.141-.028.28-.064.417l-3.067-2.37A5.93 5.93 0 0 1 16.001 10a5.999 5.999 0 0 1 6 6.001c0 .901-.22 1.741-.579 2.505z"/></symbol><symbol id="icon-add" viewBox="0 0 32 32"><path d="M13.76 31.552V17.6H0v-3.968h13.76V0h4.096v13.632h13.76V17.6h-13.76v13.952H13.76z"/></symbol><symbol id="icon-ideas" viewBox="0 0 32 32"><path d="M11.004 28.397c.001.393.117.778.335 1.106l1.068 1.606a1.995 1.995 0 0 0 1.665.892h3.857a1.998 1.998 0 0 0 1.665-.892l1.068-1.606c.218-.327.335-.712.335-1.106L21 26h-9.999l.003 2.397zM5 11c0 2.773 1.028 5.303 2.723 7.236 1.033 1.178 2.648 3.639 3.263 5.716l.007.049h10.015l.007-.049c.616-2.076 2.231-4.537 3.263-5.716A10.94 10.94 0 0 0 27 11C27 4.913 22.057-.019 15.966 0 9.59.019 5 5.186 5 11zm11-5c-2.757 0-5 2.243-5 5a1 1 0 1 1-2 0c0-3.86 3.14-7 7-7a1 1 0 1 1 0 2z"/></symbol><symbol id="icon-inactiveCheckbox" viewBox="0 0 32 32"><path stroke-width="3.2" d="M30.4 16c0 7.953-6.447 14.4-14.4 14.4S1.6 23.953 1.6 16 8.047 1.6 16 1.6 30.4 8.047 30.4 16z"/></symbol><symbol id="icon-logo" viewBox="0 0 32 32"><path d="M32 16c0 8.837-7.163 16-16 16S0 24.837 0 16 7.163 0 16 0s16 7.163 16 16z"/><path d="M11 9.667c0-.368.298-.667.667-.667h4.324c2.222 0 3.943.61 5.162 1.829 1.232 1.219 1.848 2.936 1.848 5.152 0 2.228-.616 3.959-1.848 5.191-1.219 1.219-2.94 1.829-5.162 1.829h-4.324a.667.667 0 0 1-.667-.667V9.667z"/></symbol><symbol id="icon-more" viewBox="0 0 32 32"><path d="M16 10.667c1.467 0 2.667-1.2 2.667-2.667S17.467 5.333 16 5.333c-1.467 0-2.667 1.2-2.667 2.667s1.2 2.667 2.667 2.667zm0 2.666c-1.467 0-2.667 1.2-2.667 2.667s1.2 2.667 2.667 2.667c1.467 0 2.667-1.2 2.667-2.667s-1.2-2.667-2.667-2.667zm0 8c-1.467 0-2.667 1.2-2.667 2.667s1.2 2.667 2.667 2.667c1.467 0 2.667-1.2 2.667-2.667s-1.2-2.667-2.667-2.667z"/></symbol><symbol id="icon-new" viewBox="0 0 30 32"><path d="M13.474 32a3.368 3.368 0 0 0 3.367-3.368h-6.734A3.367 3.367 0 0 0 13.474 32zm11.336-7.879c-1.017-1.093-2.919-2.736-2.919-8.121 0-4.089-2.867-7.363-6.734-8.166V6.737a1.684 1.684 0 1 0-3.366 0v1.097C7.925 8.637 5.057 11.911 5.057 16c0 5.384-1.903 7.028-2.919 8.121a1.64 1.64 0 0 0-.453 1.143c.006.863.683 1.684 1.689 1.684h20.2c1.006 0 1.684-.821 1.689-1.684a1.642 1.642 0 0 0-.453-1.143z"/><path stroke-width="2.526" d="M28.211 8.421a6.316 6.316 0 1 1-12.633 0 6.316 6.316 0 0 1 12.633 0z"/></symbol><symbol id="icon-overview" viewBox="0 0 32 32"><path d="M31.046 17.882H17.088l9.296 9.296c.355.355.94.384 1.305.04a14.095 14.095 0 0 0 4.302-8.286c.079-.556-.383-1.05-.945-1.05zm-.931-3.811C29.63 7.044 24.015 1.429 16.988.944c-.536-.037-.988.415-.988.953v13.162h13.163c.538 0 .989-.452.952-.988zm-16.939 3.811V3.924c0-.562-.494-1.024-1.049-.945C5.117 3.97-.241 10.094.008 17.433c.256 7.538 6.746 13.719 14.288 13.624a14.007 14.007 0 0 0 7.957-2.59c.465-.329.495-1.014.092-1.416l-9.168-9.169z"/></symbol><symbol id="icon-profileCircle" viewBox="0 0 32 32"><path d="M31.167 16c0 8.376-6.79 15.167-15.167 15.167S.833 24.377.833 16C.833 7.624 7.623.833 16 .833S31.167 7.623 31.167 16z"/></symbol><symbol id="icon-search" viewBox="0 0 32 32"><path stroke-width="3" d="M24.5 13c0 6.351-5.149 11.5-11.5 11.5S1.5 19.351 1.5 13 6.649 1.5 13 1.5 24.5 6.649 24.5 13z"/><path stroke-linecap="round" stroke-width="3" d="m22 22 8 8"/></symbol><symbol id="icon-settings" viewBox="0 0 32 32"><path d="M30.463 19.731 27.8 18.193c.269-1.45.269-2.938 0-4.387l2.663-1.537a.756.756 0 0 0 .344-.875 15.565 15.565 0 0 0-3.419-5.912.753.753 0 0 0-.925-.144L23.8 6.876A11.796 11.796 0 0 0 20 4.682V1.613a.749.749 0 0 0-.587-.731 15.727 15.727 0 0 0-6.825 0 .749.749 0 0 0-.588.731v3.075a12.164 12.164 0 0 0-3.8 2.194L5.544 5.345a.742.742 0 0 0-.925.144A15.475 15.475 0 0 0 1.2 11.401c-.106.338.038.7.344.875l2.662 1.537a12.03 12.03 0 0 0 0 4.388l-2.663 1.538a.756.756 0 0 0-.344.875 15.565 15.565 0 0 0 3.419 5.912.752.752 0 0 0 .925.144l2.663-1.537a11.814 11.814 0 0 0 3.8 2.194v3.075c0 .35.244.656.588.731 2.294.512 4.644.487 6.825 0a.748.748 0 0 0 .587-.731v-3.075a12.153 12.153 0 0 0 3.8-2.194l2.663 1.537a.742.742 0 0 0 .925-.144 15.475 15.475 0 0 0 3.419-5.912.771.771 0 0 0-.35-.881zM16 21c-2.756 0-5-2.244-5-5s2.244-5 5-5 5 2.244 5 5-2.244 5-5 5z"/></symbol><symbol id="icon-sheet" viewBox="0 0 51 32"><path d="M6.261 2.783h38.957a2.783 2.783 0 0 1 2.783 2.783V20.87a2.783 2.783 0 0 1-2.783 2.783H30.609l-4.689 4.019a.279.279 0 0 1-.362 0l-4.689-4.019H6.26a2.783 2.783 0 0 1-2.783-2.783V5.566A2.783 2.783 0 0 1 6.26 2.783z"/><path d="M45.217 23.652zm-14.608 0v-.348h-.129l-.098.084.226.264zm-4.689 4.019zm-.362 0zm-4.688-4.019.226-.264-.098-.084h-.129v.348zm-14.609 0zM45.217 2.435H6.26v.696h38.957v-.696zm3.131 3.13a3.13 3.13 0 0 0-3.13-3.13v.696a2.435 2.435 0 0 1 2.435 2.435h.696zm0 15.305V5.566h-.696V20.87h.696zM45.217 24a3.13 3.13 0 0 0 3.13-3.13h-.696a2.435 2.435 0 0 1-2.435 2.435v.696zm-14.608 0h14.609v-.696H30.609V24zm-.227-.612-4.689 4.019.453.528 4.689-4.019-.453-.528zm-4.688 4.019a.071.071 0 0 1 .091 0l-.453.528c.234.201.58.201.815 0l-.453-.528zm.09 0-4.689-4.019-.453.528 4.689 4.019.453-.528zM6.261 24H20.87v-.696H6.261V24zM3.13 20.87A3.13 3.13 0 0 0 6.26 24v-.696a2.435 2.435 0 0 1-2.435-2.435h-.696zm0-15.305v15.304h.696V5.565H3.13zm3.131-3.13a3.13 3.13 0 0 0-3.13 3.13h.696A2.435 2.435 0 0 1 6.262 3.13v-.696z"/></symbol><symbol id="icon-sort" viewBox="0 0 32 32"><path d="m2.257 8.537 4.374-4.286a.887.887 0 0 1 1.237 0l4.374 4.286c.551.539.159 1.463-.619 1.463H8.999v17.143a.866.866 0 0 1-.875.857h-1.75a.866.866 0 0 1-.875-.857V10H2.875c-.779 0-1.168-.925-.619-1.463zm12.868-1.108h14A.866.866 0 0 0 30 6.572V4.858a.866.866 0 0 0-.875-.857h-14a.866.866 0 0 0-.875.857v1.714c0 .473.392.857.875.857zm-.875 6v-1.714c0-.473.392-.857.875-.857h10.5c.483 0 .875.384.875.857v1.714a.866.866 0 0 1-.875.857h-10.5a.866.866 0 0 1-.875-.857zm0 13.714v-1.714c0-.473.392-.857.875-.857h3.5c.483 0 .875.384.875.857v1.714a.866.866 0 0 1-.875.857h-3.5a.866.866 0 0 1-.875-.857zm0-6.857v-1.714c0-.473.392-.857.875-.857h7c.483 0 .875.384.875.857v1.714a.866.866 0 0 1-.875.857h-7a.866.866 0 0 1-.875-.857z"/></symbol><symbol id="icon-subscription" viewBox="0 0 32 32"><path d="M10.07 22.664c-.543-.543-.26-.39-1.57-.741-.594-.159-1.117-.466-1.589-.833l-2.836 6.953a1 1 0 0 0 .964 1.377l3.293-.126 2.265 2.392a1 1 0 0 0 1.652-.31l3.253-7.976a4.532 4.532 0 0 1-2.207.599 4.53 4.53 0 0 1-3.226-1.336zm17.855 5.38-2.836-6.953c-.473.368-.995.673-1.589.833-1.317.352-1.028.199-1.57.741a4.537 4.537 0 0 1-3.226 1.336c-.777 0-1.529-.222-2.207-.599l3.253 7.976a1 1 0 0 0 1.652.31l2.266-2.392 3.293.126a1 1 0 0 0 .964-1.377zm-7.487-6.794c.955-.972 1.064-.888 2.424-1.259a2.538 2.538 0 0 0 1.779-1.811c.468-1.775.346-1.561 1.622-2.859a2.59 2.59 0 0 0 .651-2.474c-.467-1.774-.468-1.526 0-3.302a2.596 2.596 0 0 0-.651-2.474c-1.276-1.299-1.154-1.085-1.622-2.859a2.538 2.538 0 0 0-1.779-1.811C21.12 1.925 21.33 2.05 20.053.75a2.487 2.487 0 0 0-2.431-.663c-1.742.475-1.499.476-3.244 0a2.487 2.487 0 0 0-2.431.663c-1.276 1.299-1.066 1.175-2.809 1.651a2.54 2.54 0 0 0-1.779 1.811c-.467 1.774-.346 1.561-1.622 2.859a2.59 2.59 0 0 0-.651 2.474c.467 1.773.468 1.525 0 3.301a2.596 2.596 0 0 0 .651 2.474c1.276 1.299 1.154 1.084 1.622 2.859a2.538 2.538 0 0 0 1.779 1.811c1.399.381 1.503.321 2.424 1.259a2.485 2.485 0 0 0 3.109.364 2.48 2.48 0 0 1 2.658 0 2.483 2.483 0 0 0 3.108-.364zM10.104 10.997c0-3.314 2.64-6.001 5.896-6.001s5.896 2.687 5.896 6.001c0 3.314-2.64 6.001-5.896 6.001s-5.896-2.687-5.896-6.001z"/></symbol><symbol id="icon-tickets" viewBox="0 0 32 32"><path d="M7.111 10.667h17.778v10.667H7.111V10.667zM29.333 16A2.667 2.667 0 0 0 32 18.667V24a2.667 2.667 0 0 1-2.667 2.667H2.666A2.667 2.667 0 0 1-.001 24v-5.333a2.667 2.667 0 1 0 0-5.334V8a2.667 2.667 0 0 1 2.667-2.667h26.667A2.667 2.667 0 0 1 32 8v5.333A2.667 2.667 0 0 0 29.333 16zm-2.666-5.778c0-.736-.597-1.333-1.333-1.333H6.667c-.736 0-1.333.597-1.333 1.333v11.556c0 .736.597 1.333 1.333 1.333h18.667c.736 0 1.333-.597 1.333-1.333V10.222z"/></symbol><symbol id="icon-vertical" viewBox="0 0 2 32"><path d="M1 0v32"/></symbol></defs></svg>